<?xml version="1.0" encoding="utf-8"?>
<!-- Generator: Adobe Illustrator 18.0.0, SVG Export Plug-In . SVG Version: 6.00 Build 0)  -->
<!DOCTYPE svg PUBLIC "-//W3C//DTD SVG 1.1//EN" "http://www.w3.org/Graphics/SVG/1.1/DTD/svg11.dtd">
<svg version="1.1" id="Calque_1" xmlns="http://www.w3.org/2000/svg" xmlns:xlink="http://www.w3.org/1999/xlink" x="0px" y="0px"
	 viewBox="0 0 300 300" enable-background="new 0 0 300 300" xml:space="preserve">
<g>
	<g>
		<path fill="none" stroke="#231604" stroke-width="0.5" stroke-miterlimit="10" d="M236.8,181.9C236,218,239,253,236,289
			c0,2-2,4-3,5c-2,2-5,3-8,3c-68,0-136,2-204-1c-1,0-3-1-4-2c-2-2-4-5-4-8c0-87-1-173,0-260c0-3,1-6,4-7c14-6,29-2,44.4-2.7"/>
		<path fill="none" stroke="#231604" stroke-width="0.5" stroke-miterlimit="10" d="M187.2,15.1C204,16,223,9,237,21
			c2,20,0,39,1,58.6"/>
	</g>
	<g>
		<path fill="none" stroke="#231604" stroke-width="0.5" stroke-miterlimit="10" d="M166.6,53.8H84.3c-14.5,0-25.4-12.1-25.4-25.4
			C58.9,13.9,71,3,84.3,3h82.3C181.1,3,192,15.1,192,28.4C192,42.9,181.1,53.8,166.6,53.8L166.6,53.8z"/>
	</g>
	<g>
		<g>
			<path fill="none" stroke="#231604" stroke-width="0.5" stroke-miterlimit="10" d="M176.2,196.6h-0.8l-26.7-3.3
				c-2.5,0-4.2-1.7-5.8-3.3c-1.7-1.7-1.7-4.2-0.8-6.7l6.7-26.7c0.8-1.7,1.7-3.3,3.3-5l72.6-49.3l16.7-10.9l5.8-3.3
				c1.7-0.8,4.2-1.7,6.7-1.7s4.2,1.7,5,3.3l20,30.1c1.7,1.7,1.7,4.2,1.7,6.7c0,2.5-1.7,4.2-3.3,5l-94.3,64.3
				C179.6,195.8,177.9,196.6,176.2,196.6L176.2,196.6z M159.5,177.4l14.2,1.7l85.2-58.4L248,104.8l-85.2,58.4L159.5,177.4
				L159.5,177.4z"/>
		</g>
	</g>
</g>
<line fill="none" stroke="#231604" stroke-width="0.5" stroke-miterlimit="10" x1="83.1" y1="28.4" x2="167.8" y2="28.4"/>
</svg>
