<?xml version="1.0" encoding="utf-8"?>
<!-- Generator: Adobe Illustrator 18.0.0, SVG Export Plug-In . SVG Version: 6.00 Build 0)  -->
<!DOCTYPE svg PUBLIC "-//W3C//DTD SVG 1.1//EN" "http://www.w3.org/Graphics/SVG/1.1/DTD/svg11.dtd">
<svg version="1.1" id="Calque_1" xmlns="http://www.w3.org/2000/svg" xmlns:xlink="http://www.w3.org/1999/xlink" x="0px" y="0px"
	 viewBox="0 0 300 300" enable-background="new 0 0 300 300" xml:space="preserve">
<g>
	<g>
		<g>
			<path fill="none" stroke="#231604" stroke-width="0.5" stroke-miterlimit="10" d="M256,150.6"/>
			<path fill="none" stroke="#231604" stroke-width="0.5" stroke-miterlimit="10" d="M208,102.7c-4.9-4.9-4.9-12.3,0-17.2
				c4.9-4.9,12.3-4.9,17.2,0l56.6,56.6c4.9,4.9,4.9,12.3,0,17.2l-56.6,56.6c-2.5,2.5-4.9,3.7-8.6,3.7l0,0c-3.7,0-6.1-1.2-8.6-3.7
				c-4.9-4.9-4.9-12.3,0-17.2"/>
		</g>
		<g>
			<path fill="none" stroke="#231604" stroke-width="0.5" stroke-miterlimit="10" d="M91.1,198.6c4.9,4.9,4.9,12.3,0,17.2
				c-2.5,2.5-6.1,3.7-8.6,3.7l0,0c-3.7,0-6.1-1.2-8.6-3.7l-56.6-56.6c-4.9-4.9-4.9-12.3,0-17.2l56.6-56.6c4.9-4.9,12.3-4.9,17.2,0
				c4.9,4.9,4.9,12.3,0,17.2"/>
			<path fill="none" stroke="#231604" stroke-width="0.5" stroke-miterlimit="10" d="M43.1,150.6"/>
		</g>
	</g>
	<g>
		<path fill="none" stroke="#231604" stroke-width="0.5" stroke-miterlimit="10" d="M197,28.9l-92.2,248.4"/>
	</g>
</g>
</svg>
