<?xml version="1.0" encoding="utf-8"?>
<!-- Generator: Adobe Illustrator 18.0.0, SVG Export Plug-In . SVG Version: 6.00 Build 0)  -->
<!DOCTYPE svg PUBLIC "-//W3C//DTD SVG 1.1//EN" "http://www.w3.org/Graphics/SVG/1.1/DTD/svg11.dtd">
<svg version="1.1" id="Calque_1" xmlns="http://www.w3.org/2000/svg" xmlns:xlink="http://www.w3.org/1999/xlink" x="0px" y="0px"
	 viewBox="0 0 43 63.5" enable-background="new 0 0 43 63.5" xml:space="preserve">
<g id="Kq6RJm.tif">
	<g>
		<path fill="#FFFFFF" stroke="#000507" stroke-width="2" stroke-miterlimit="10" d="M21.6,32.8c-0.1,0.2-0.1,0.5-0.1,0.7
			c0,2.8,0,5.6,0,8.4c-0.2,0.3-0.6,0.2-0.9,0.2c-2.6,0-5.3,0-7.9,0c-0.5,0-1,0-1.5,0c-0.4,0-0.7,0-1-0.3c-2.2-0.2-4-1-5.7-2.4
			C2.2,37.4,1,34.8,1,31.6c0-2.7,1-5,2.9-7c0.1-0.1,0.2-0.3,0.3-0.4c1.5-1.3,3.3-2.3,5.3-2.6c0.2,0,0.3,0,0.5-0.1
			c1.2-0.6,2.5-0.3,3.7-0.3c2.3,0,4.5,0,6.8,0c0.3,0,0.6,0,0.9,0.1c0.1,0,0.1,0.1,0.1,0.1c0.1,0.2,0.1,0.3,0.1,0.5
			c0,2.3,0.1,4.6,0,6.9c0,0.6,0.1,1.2,0.1,1.8c0,0.6-0.1,1.2,0,1.7C21.8,32.6,21.8,32.8,21.6,32.8z"/>
		<path fill="#FFFFFF" stroke="#000507" stroke-width="2" stroke-miterlimit="10" d="M21.5,1c3.6,0,7.2-0.1,10.8,0
			c4.8,0.1,9.1,4.2,9.7,8.9c0.7,5.4-3.1,10.7-8.8,11.4c-0.1,0-0.3,0-0.3,0.2c-0.1,0.2-0.3,0.2-0.4,0.2c-0.6-0.1-1.3,0-1.9,0
			c-2.7-0.2-5.4,0-8.1-0.1c-0.3,0-0.7,0.1-0.9-0.2l0,0c-0.2-0.2-0.2-0.4-0.2-0.6c0-0.6,0-1.1,0-1.7c0-5.7,0-11.5,0-17.2
			C21.3,1.7,21.2,1.3,21.5,1z"/>
		<path fill="#FFFFFF" stroke="#000507" stroke-width="2" stroke-miterlimit="10" d="M21.5,1c0,6.8,0,13.7,0,20.5
			c-3.8,0-7.7-0.1-11.5,0.1c0.1,0,0.1-0.1,0.2-0.2c-2-0.2-3.8-0.9-5.3-2.1c-2.2-1.7-3.5-4-3.9-6.8C0.4,7.2,4,2.1,9.5,1.2
			C9.9,1.1,10.4,1,10.8,1C14.3,1,17.9,1,21.5,1z"/>
		<path fill="#FFFFFF" stroke="#000507" stroke-width="2" stroke-miterlimit="10" d="M30.6,21.6c0.8-0.1,1.5-0.1,2.3,0
			c1.5,0.1,5.2,1.8,5.2,2.1c0.3,0.2,0.5,0.4,0.8,0.7c1.1,1.1,1.9,2.3,2.5,3.7c2.4,6.2-1.7,13-8.4,13.8c-5.5,0.7-10.5-3.1-11.4-8.6
			c0-0.2,0-0.3,0-0.5c-0.1-0.7-0.1-1.4,0-2.1c0-1,0-1.9,0.4-2.8c1.2-2.9,3.3-4.9,6.2-6C29,21.6,29.8,21.6,30.6,21.6z"/>
		<path fill="#FFFFFF" stroke="#000507" stroke-width="2" stroke-miterlimit="10" d="M10.2,41.9c3.8,0.2,7.5,0,11.3,0.1
			c0,3.6,0.1,7.3,0,10.9c-0.2,4.9-4.1,9-9,9.5C6.9,63.1,2,59.4,1.1,53.9c-0.9-5.6,3-10.9,8.6-11.8C9.9,42.1,10.1,42.2,10.2,41.9z"/>
		<path fill="#FFFFFF" stroke="#000507" stroke-width="2" stroke-miterlimit="10" d="M30.6,21.6c-4.8,0.5-8.6,4.5-9,9.1
			c-0.1-0.2-0.1-0.5-0.1-0.7c0-2.8,0-5.7,0-8.5c2.8,0,5.6,0,8.4,0C30.2,21.5,30.4,21.5,30.6,21.6z"/>
	</g>
</g>
</svg>
