<?xml version="1.0" encoding="utf-8"?>
<!-- Generator: Adobe Illustrator 18.0.0, SVG Export Plug-In . SVG Version: 6.00 Build 0)  -->
<!DOCTYPE svg PUBLIC "-//W3C//DTD SVG 1.1//EN" "http://www.w3.org/Graphics/SVG/1.1/DTD/svg11.dtd">
<svg version="1.1" id="Calque_1" xmlns="http://www.w3.org/2000/svg" xmlns:xlink="http://www.w3.org/1999/xlink" x="0px" y="0px"
	 viewBox="0 0 71.8 112.1" enable-background="new 0 0 71.8 112.1" xml:space="preserve">
<g id="Ch2uC5.tif">
	<g>
		<path fill="#080808" d="M46,83.6c9.5,2.7,16.2,8.3,19.8,17.4c1.1,2.7,1.6,5.6,1.6,8.5c0,1.7-0.6,2.6-2.4,2.6
			c-19.5,0-38.9,0-58.4,0c-2,0-2.4-1-2.4-2.7c0-11.1,8.2-21.6,19.3-24.8c0.7-0.2,1.4-0.4,2.1-0.6c-0.4-0.6-1-0.3-1.5-0.3
			c-6.6,0-13.1-0.1-19.7,0c-2,0-2.9-0.7-2.8-2.8c0.1-8.8,0-17.5,0-26.3c0-1.2-0.2-2.2-0.7-3.4c-1.3-3.1-1.4-6.2,0.2-9.3
			c0.9-1.8,0.4-3.9,0.4-5.8c-0.2-5.7,0.8-11.1,3.2-16.3c7.7-16.6,27.7-24.2,44.5-17c0.4,0.2,0.8,0.4,1.2,0.6C51.7,3.8,52.6,4.6,52,6
			c-0.6,1.4-1.8,1.2-3,0.6c-4.1-1.9-8.4-3-12.9-3C24.4,3.8,15.4,9,9.2,19c-0.3,0.5-0.6,1-0.7,1.6c2-1.4,4.7-1.3,6.4-3.5
			c2.7-3.6,6.4-6.1,10.5-7.9c1.3-0.6,2.3-0.5,3.4,0.5c2.6,2.3,5.7,4.1,8.8,5.7c5,2.6,10.3,3.7,16,3.2c3.3-0.3,6.6-0.1,9.2,2.4
			c0.5-1-0.2-1.6-0.5-2.2c-1.7-2.9-3.9-5.5-6.4-7.7c-1-0.8-1.7-1.8-0.7-3c1-1.2,2.1-0.6,3,0.2c7.4,6.6,11.5,14.9,11.9,24.9
			c0.1,1.5,0,2.9,0,4.4c0,2,0.1,3.8,1,5.7c1.2,2.6,0.7,5.3-0.3,7.8c-0.5,1.1-0.6,2.2-0.6,3.4c0,8.7,0,17.4,0,26c0,2.7-0.3,3-3,3
			C60,83.6,53,83.6,46,83.6z M35.9,22.3c-6.5,0-13,0.2-19.5-0.1c-4.8-0.2-7.1,2.6-7,7c0.1,6.3,0.2,12.7-0.1,19
			c-0.2,4.2,2.2,6.9,5.9,7c13.7,0.1,27.4,0.1,41.1,0c3.8,0,5.9-2,6-5.8c0.1-7.1,0.1-14.3,0-21.4c-0.1-3.7-2.3-5.7-6-5.7
			C49.4,22.3,42.6,22.3,35.9,22.3z M5.2,56.9c0,7.4,0,14.6,0,21.9c0,1.4,0.9,1.1,1.6,1.1c6.1,0,12.2,0,18.4,0c0.6,0,1.5,0.4,1.6-0.5
			c0.1-0.7-0.7-0.8-1.3-1c-2.2-0.9-4.2-2.1-6-3.5c-1-0.7-1.2-1.7-0.5-2.7c0.7-0.9,1.6-0.9,2.5-0.3c0.4,0.2,0.7,0.5,1.1,0.7
			c7.9,5.1,16.1,5.6,24.4,1.3c6.2-3.2,10-8.3,11.8-15.1c-15.3,0-30.5,0-45.7,0c0.6,3,2,5.6,3.6,8c0.7,1,0.9,2.1-0.3,2.8
			c-1.2,0.8-2,0.1-2.7-0.9c-1.5-2.2-3-4.4-3.4-7C9.6,58.8,7.8,57.7,5.2,56.9z M50.5,89.2c-0.2,0.5-0.3,0.8-0.4,1.2
			c-2.3,6.4-7.6,10.3-14.1,10.4c-6.4,0.1-11.9-3.9-14.1-10.4c-0.6-1.7-1.2-1-2-0.5c-6.5,3.8-10.5,9.3-11.8,16.7c-0.3,1.6,0,2,1.6,2
			c6.3-0.1,12.7,0,19,0c11.2,0,22.3,0,33.5,0c0.8,0,1.9,0.4,1.6-1.2C62.4,99.1,58,93,50.5,89.2z M34.7,80.4c-4.2-0.4-4.2-0.4-4.2,3
			c0,3.3-0.1,3.4-3.2,4c-0.4,0.1-0.9,0.2-1.3,0.2c-1,0.1-1.1,0.5-0.8,1.5c1.3,4.6,5.6,8,10.4,8.1c5,0.1,9.3-2.9,10.9-7.5
			c0.5-1.4,0.3-2-1.2-2.2c-4.4-0.6-4.2-0.6-4.2-5.1c0-0.4,0-0.7,0-1.1c0.1-1-0.2-1.4-1.3-1.2C37.9,80.3,35.9,80.4,34.7,80.4z
			 M66.5,56.4c-1.5,1.8-3.8,1.1-4.4,3.3c-2.3,8.9-7.8,15.1-16.2,18.7c-0.5,0.2-1.1,0.3-1,0.9c0.1,0.7,0.8,0.5,1.2,0.5
			c6.3,0,12.7,0,19,0c1.1,0,1.3-0.4,1.3-1.4C66.5,71.4,66.5,64.2,66.5,56.4z M34.9,18.5c-2.6-1.8-5.3-3.4-7.6-5.4
			c-0.4-0.4-0.8-0.5-1.4-0.2c-2.7,1.3-5.2,3-7.4,5.5C24.2,18.5,29.6,18.5,34.9,18.5z M5.7,42.7c-2.9,2.1-2.8,6.5,0.5,9.7
			C5.4,49,5.8,45.9,5.7,42.7z M65.8,42.4c0,3.4,0,6.5,0,9.6C68.7,49,68.9,45,65.8,42.4z M5.7,38.4c0-2.3,0-4.5,0-6.8
			C5.1,33.9,5.1,36.1,5.7,38.4z M66,38.4c0.5-2.2,0.7-4.5,0-6.7C66,33.9,66,36.2,66,38.4z"/>
		<path fill="#080808" d="M35.8,51.7c-5.5,0-11.1,0-16.6,0c-4,0-6.1-2.1-6.2-6c0-4.7,0-9.3,0-14c0-3.7,2.1-5.9,5.8-5.9
			c6.8-0.1,13.6,0,20.3,0c1.3,0,2.5,0.1,2.5,1.7c0,1.7-1.3,1.9-2.6,1.9c-6.5,0-13,0-19.5,0c-2.5,0-2.9,0.4-2.9,2.9
			c0,4.4,0.1,8.8,0,13.1c0,2,0.8,2.8,2.7,2.8c11,0,22,0,33,0c2,0,2.8-0.9,2.8-2.9c-0.1-4.3,0-8.6,0-12.9c0-2.6-0.4-3-3.1-3
			c-1.5,0-3.1,0-4.6,0c-1.2,0-2.3-0.4-2.3-1.8c0-1.4,0.9-1.8,2.2-1.8c2.1,0,4.2-0.1,6.3,0.1c2.9,0.2,4.9,2.2,5,5.1
			c0.1,5.2,0.1,10.4,0,15.5c-0.1,3.1-2.4,5.2-5.6,5.2C47.3,51.7,41.6,51.7,35.8,51.7z"/>
		<path fill="#080808" d="M29,67.5c-0.1-3.9,3.1-7.3,6.8-7.4c3.7,0,6.9,3.3,6.9,7.3c0,3.8-3,7.1-6.7,7.3C32.3,74.8,29,71.5,29,67.5z
			 M38.8,66.1c-0.5-1.5-1.4-2.3-2.9-2.3c-1.5,0-2.6,0.7-3.1,2.3C34.9,66.1,36.8,66.1,38.8,66.1z M33.5,70c1.7,1.2,3,1.3,4.5,0
			C36.5,69.6,35.2,69.6,33.5,70z"/>
	</g>
</g>
</svg>
