<?xml version="1.0" encoding="utf-8"?>
<!-- Generator: Adobe Illustrator 18.0.0, SVG Export Plug-In . SVG Version: 6.00 Build 0)  -->
<!DOCTYPE svg PUBLIC "-//W3C//DTD SVG 1.1//EN" "http://www.w3.org/Graphics/SVG/1.1/DTD/svg11.dtd">
<svg version="1.1" id="Calque_1" xmlns="http://www.w3.org/2000/svg" xmlns:xlink="http://www.w3.org/1999/xlink" x="0px" y="0px"
	 viewBox="0 0 1280 800" enable-background="new 0 0 1280 800" xml:space="preserve">
<circle fill="#D7DBDD" cx="621" cy="404.2" r="327.2"/>
<g>
	<g>
		<linearGradient id="SVGID_1_" gradientUnits="userSpaceOnUse" x1="435.7127" y1="390.4888" x2="669.8165" y2="588.5173">
			<stop  offset="0" style="stop-color:#FFC171"/>
			<stop  offset="1" style="stop-color:#FF616E"/>
		</linearGradient>
		<path fill="url(#SVGID_1_)" d="M622.5,406.1c-230.9-3.5-398,39,1.3,236.8"/>
		<g>
			<path fill="#FFFFFF" stroke="#FFFFFF" stroke-width="0.25" stroke-miterlimit="10" d="M622.3,737.5c-44.8,0-88.3-8.8-129.3-26.1
				c-39.5-16.7-75-40.6-105.5-71.1s-54.4-66-71.2-105.6c-17.3-40.9-26.1-84.4-26.1-129.3s8.7-88.3,25.9-129.3
				c16.7-39.6,40.5-75,70.8-105.5c30.4-30.5,65.8-54.4,105.3-71.1c40.8-17.3,84.4-26.1,129.2-26.1s88.3,8.8,129.3,26.1
				c39.5,16.7,75,40.6,105.5,71.1c30.5,30.4,54.4,66,71.1,105.5c17.3,40.9,26.1,84.4,26.1,129.3s-8.7,88.3-25.9,129.3
				c-16.6,39.6-40.4,75.1-70.8,105.5c-30.4,30.5-65.8,54.4-105.3,71.1C710.6,728.7,667.1,737.5,622.3,737.5z M621.5,78.2
				c-44.2,0-87.1,8.7-127.3,25.7c-38.9,16.5-73.8,40-103.8,70.1c-29.9,30-53.4,65-69.8,104.1c-17,40.3-25.6,83.2-25.6,127.5
				s8.7,87.1,25.7,127.5c16.5,39,40,74,70.1,104.1c30,30,65,53.6,104.1,70.1c40.4,17.1,83.2,25.7,127.5,25.7
				c44.2,0,87.1-8.7,127.3-25.7c38.9-16.5,73.8-40,103.8-70.1c29.9-30,53.4-65,69.8-104.1c17-40.4,25.6-83.2,25.6-127.5
				s-8.7-87.1-25.7-127.5c-16.5-39-40-74-70.1-104.1c-30-30-65.1-53.6-104.1-70.1C708.6,86.8,665.7,78.2,621.5,78.2z"/>
		</g>
		<g>
			<path fill="none" stroke="#FFFFFF" stroke-width="0.25" stroke-miterlimit="10" d="M622.3,671.1c-36,0-70.9-7.1-103.7-20.9
				c-31.7-13.4-60.2-32.6-84.7-57c-24.5-24.4-43.6-52.8-57-84.4c-13.9-32.7-20.9-67.5-20.9-103.3c0-146.8,119.5-266.4,266.4-266.4
				c36,0,70.8,7.1,103.6,20.9c31.6,13.4,60,32.6,84.4,57c24.3,24.4,43.4,52.8,56.8,84.4c13.8,32.7,20.8,67.5,20.8,103.3
				s-7.1,70.6-20.9,103.4c-13.4,31.7-32.6,60.2-57,84.7c-24.5,24.5-52.8,43.8-84.4,57.2C692.8,664,658.1,671.1,622.3,671.1z"/>
		</g>
		<g>
			<path fill="none" d="M622.3,605.5c-53.6,0-103.9-20.7-141.6-58.4s-58.4-87.9-58.4-141.6c0-53.6,20.9-103.9,58.7-141.6
				c37.8-37.6,87.9-58.4,141.3-58.4c53.4,0,103.5,20.7,141.3,58.4c37.8,37.7,58.7,88,58.7,141.6c0,53.4-20.7,103.5-58.4,141.3
				C726.1,584.6,675.9,605.5,622.3,605.5z"/>
			<linearGradient id="SVGID_2_" gradientUnits="userSpaceOnUse" x1="587.316" y1="316.4122" x2="768.2337" y2="469.4505">
				<stop  offset="0" style="stop-color:#FFC171"/>
				<stop  offset="1" style="stop-color:#FF616E"/>
			</linearGradient>
			<path fill="url(#SVGID_2_)" d="M622.3,603.1c30.8-80.9,119.9-85,197.6-197.6C951.1,215.4,755,278.3,622.3,275.1"/>
		</g>
		<g>
			<path fill="none" stroke="#FFFFFF" stroke-width="0.25" stroke-miterlimit="10" d="M622.3,539.1c-35.8,0-69.5-13.9-94.9-39.2
				c-25.5-25.4-39.5-59.2-39.5-95.1c0-36.1,13.9-69.9,39.2-95.1c25.3-25.3,59.1-39.2,95.1-39.2s69.9,13.9,95.1,39.2
				c25.3,25.3,39.2,59.1,39.2,95.1c0,36-14,69.8-39.5,95.1C691.8,525.2,658.1,539.1,622.3,539.1z"/>
		</g>
		<g>
			<path fill="none" stroke="#FFFFFF" stroke-width="0.25" stroke-miterlimit="10" d="M622.3,473.5c-37.4,0-68-30.5-68-68
				s30.5-68,68-68s68,30.5,68,68S659.7,473.5,622.3,473.5z"/>
		</g>
	</g>
	<g>
		<g>
			<line fill="#FFFFFF" stroke="#FFFFFF" stroke-width="0.5" stroke-miterlimit="10" x1="622.5" y1="405.5" x2="622.5" y2="734.4"/>
		</g>
		<g>
			<line fill="#FFFFFF" stroke="#FFFFFF" stroke-width="0.5" stroke-miterlimit="10" x1="854.7" y1="637" x2="622.3" y2="404.6"/>
		</g>
		<g>
			<line fill="#FFFFFF" stroke="#FFFFFF" stroke-width="0.5" stroke-miterlimit="10" x1="622.3" y1="405.7" x2="951.2" y2="405.7"/>
		</g>
		<g>
			<line fill="#FFFFFF" stroke="#FFFFFF" stroke-width="0.5" stroke-miterlimit="10" x1="622.2" y1="405.6" x2="854.7" y2="172.4"/>
		</g>
		<g>
			<line fill="#FFFFFF" stroke="#FFFFFF" stroke-width="0.5" stroke-miterlimit="10" x1="622.1" y1="75.9" x2="622.1" y2="405.5"/>
		</g>
		<g>
			<line fill="#FFFFFF" stroke="#FFFFFF" stroke-width="0.5" stroke-miterlimit="10" x1="390" y1="172.4" x2="623.1" y2="405.6"/>
		</g>
		<g>
			<line fill="#FFFFFF" stroke="#FFFFFF" stroke-width="0.5" stroke-miterlimit="10" x1="622.3" y1="405.4" x2="292.6" y2="405.4"/>
		</g>
		<g>
			<line fill="#FFFFFF" stroke="#FFFFFF" stroke-width="0.5" stroke-miterlimit="10" x1="389.2" y1="637.9" x2="622.3" y2="405.5"/>
		</g>
	</g>
	<g>
		<g>
			<line fill="#FFFFFF" stroke="#FFFFFF" stroke-width="0.5" stroke-miterlimit="10" x1="622.7" y1="405.4" x2="745.9" y2="710.3"/>
		</g>
		<g>
			<text fill="none">			<textPath  xlink:href="#SVGID_x5F_3_x5F_" startOffset="0%">
			</textPath>
</text>
		</g>
		<g>
			<line fill="#FFFFFF" stroke="#FFFFFF" stroke-width="0.5" stroke-miterlimit="10" x1="622.4" y1="405.6" x2="927.4" y2="282.4"/>
		</g>
		<g>
			<line fill="#FFFFFF" stroke="#FFFFFF" stroke-width="0.5" stroke-miterlimit="10" x1="622.7" y1="404.5" x2="750.9" y2="101.3"/>
		</g>
		<g>
			<line fill="#FFFFFF" stroke="#FFFFFF" stroke-width="0.5" stroke-miterlimit="10" x1="499.4" y1="99.6" x2="622.9" y2="405.3"/>
		</g>
		<g>
			<line fill="#FFFFFF" stroke="#FFFFFF" stroke-width="0.5" stroke-miterlimit="10" x1="319.8" y1="276.9" x2="623.4" y2="405.7"/>
		</g>
		<g>
			<line fill="#FFFFFF" stroke="#FFFFFF" stroke-width="0.5" stroke-miterlimit="10" x1="622.5" y1="405.8" x2="316.8" y2="529.3"/>
		</g>
		<g>
			<line fill="#FFFFFF" stroke="#FFFFFF" stroke-width="0.5" stroke-miterlimit="10" x1="493.7" y1="707.3" x2="622.8" y2="404.4"/>
		</g>
	</g>
</g>
<text transform="matrix(1 0 0 1 527.2448 54.9887)" fill="#8898AA" font-family="'Quicksand-Medium'" font-size="24">divergent thinking</text>
<text transform="matrix(1 0 0 1 753.5684 95.8959)" fill="#8898AA" font-family="'Quicksand-Medium'" font-size="24">convergent thinking</text>
<text transform="matrix(1 0 0 1 864.0748 162.8864)" fill="#8898AA" font-family="'Quicksand-Medium'" font-size="24">risk propensity</text>
<text transform="matrix(1 0 0 1 942.876 271.3256)" fill="#8898AA" font-family="'Quicksand-Medium'" font-size="24">flexibility</text>
<text transform="matrix(1 0 0 1 975.6773 403.8609)"><tspan x="0" y="0" fill="#8898AA" font-family="'Quicksand-Medium'" font-size="24">curiosity and attention</tspan><tspan x="0" y="28.8" fill="#8898AA" font-family="'Quicksand-Medium'" font-size="24">to environment</tspan></text>
<text transform="matrix(1 0 0 1 951.0298 546.8159)" fill="#8898AA" font-family="'Quicksand-Medium'" font-size="24">tolerance to ambiguity</text>
<text transform="matrix(1 0 0 1 877.1132 650.8254)" fill="#8898AA" font-family="'Quicksand-Medium'" font-size="24">intuition</text>
<text transform="matrix(1 0 0 1 751.6934 737.1008)" fill="#8898AA" font-family="'Quicksand-Medium'" font-size="24">abstraction</text>
<text transform="matrix(1 0 0 1 576.5301 768.9532)" fill="#8898AA" font-family="'Quicksand-Medium'" font-size="24">ambition</text>
<text transform="matrix(1 0 0 1 424.5268 736.4052)" fill="#8898AA" font-family="'Quicksand-Medium'" font-size="24">ethic</text>
<text transform="matrix(1 0 0 1 261.8538 662.4629)" fill="#8898AA" font-family="'Quicksand-Medium'" font-size="24">autonomy</text>
<text transform="matrix(1 0 0 1 135.4534 547.4468)" fill="#8898AA" font-family="'Quicksand-Medium'" font-size="24">self confidence</text>
<text transform="matrix(1 0 0 1 207.0014 411.886)" fill="#8898AA" font-family="'Quicksand-Medium'" font-size="24">vision</text>
<text transform="matrix(1 0 0 1 152.0321 278.7178)" fill="#8898AA" font-family="'Quicksand-Medium'" font-size="24">organization</text>
<text transform="matrix(1 0 0 1 184.0737 165.3396)" fill="#8898AA" font-family="'Quicksand-Medium'" font-size="24">problem solving</text>
<text transform="matrix(1 0 0 1 322.0526 86.0753)" fill="#8898AA" font-family="'Quicksand-Medium'" font-size="24">communication</text>
</svg>
