<?xml version="1.0" encoding="utf-8"?>
<!-- Generator: Adobe Illustrator 18.0.0, SVG Export Plug-In . SVG Version: 6.00 Build 0)  -->
<!DOCTYPE svg PUBLIC "-//W3C//DTD SVG 1.1//EN" "http://www.w3.org/Graphics/SVG/1.1/DTD/svg11.dtd">
<svg version="1.1" id="Calque_1" xmlns="http://www.w3.org/2000/svg" xmlns:xlink="http://www.w3.org/1999/xlink" x="0px" y="0px"
	 viewBox="435.3 180.9 392.4 392.5" enable-background="new 435.3 180.9 392.4 392.5" xml:space="preserve">
<g>
	<g>
		<g>
			<path fill="#303136" d="M635.2,464.1c-0.8,0.8-1.8,1.3-2.9,1.5c-2.9,0.5-5.6-1.5-6.1-4.4l-13-81.4l-81.5-12.6
				c-2.9-0.4-4.9-3.2-4.4-6c0.4-2.9,3.1-4.9,6-4.4l85.3,13.2c2.3,0.4,4,2.1,4.4,4.4l13.6,85.2C636.9,461.3,636.3,463,635.2,464.1
				L635.2,464.1z"/>
		</g>
		<g>
			<path fill="#303136" d="M621.5,378.9l-92.6,93c-2.1,2.1-5.4,2.1-7.5,0c-2.1-2.1-2.1-5.4,0-7.5l92.6-93c2.1-2.1,5.4-2.1,7.5,0
				C623.6,373.5,623.6,376.9,621.5,378.9L621.5,378.9z"/>
		</g>
	</g>
</g>
</svg>
