<?xml version="1.0" encoding="utf-8"?>
<!-- Generator: Adobe Illustrator 18.0.0, SVG Export Plug-In . SVG Version: 6.00 Build 0)  -->
<!DOCTYPE svg PUBLIC "-//W3C//DTD SVG 1.1//EN" "http://www.w3.org/Graphics/SVG/1.1/DTD/svg11.dtd">
<svg version="1.1" id="Calque_1" xmlns="http://www.w3.org/2000/svg" xmlns:xlink="http://www.w3.org/1999/xlink" x="0px" y="0px"
	 viewBox="0 0 24 24" enable-background="new 0 0 24 24" xml:space="preserve">
<path fill="none" stroke="#000000" stroke-linecap="round" stroke-linejoin="round" d="M7,2h10c2.8,0,5,2.2,5,5v10c0,2.8-2.2,5-5,5
	H7c-2.8,0-5-2.2-5-5V7C2,4.2,4.2,2,7,2z"/>
<path fill="none" stroke="#000000" stroke-linecap="round" stroke-linejoin="round" d="M16,11.4c0.3,2.2-1.2,4.2-3.4,4.5
	c-2.2,0.3-4.2-1.2-4.5-3.4C7.8,10.4,9.3,8.3,11.5,8c0.4-0.1,0.8-0.1,1.2,0C14.4,8.3,15.7,9.6,16,11.4z"/>
<line fill="none" stroke="#000000" stroke-linecap="round" stroke-linejoin="round" x1="17.5" y1="6.5" x2="17.5" y2="6.5"/>
</svg>
